<?xml version="1.0" standalone="no"?>
<!DOCTYPE svg PUBLIC "-//W3C//DTD SVG 20010904//EN"
 "http://www.w3.org/TR/2001/REC-SVG-20010904/DTD/svg10.dtd">
<svg version="1.0" xmlns="http://www.w3.org/2000/svg"
 width="300.000000pt" height="300.000000pt" viewBox="0 0 300.000000 300.000000"
 preserveAspectRatio="xMidYMid meet">
<metadata>
Created by potrace 1.15, written by Peter Selinger 2001-2017
</metadata>
<g transform="translate(0.000000,300.000000) scale(0.100000,-0.100000)"
fill="#000000" stroke="none">
<path d="M734 2508 c-24 -45 -24 -177 0 -213 13 -20 25 -25 59 -25 23 0 59 -5
79 -10 69 -20 68 -14 68 -408 l0 -353 -35 -30 c-69 -61 -69 -157 0 -218 l35
-30 0 -203 c0 -112 -3 -213 -6 -226 -9 -31 -51 -51 -123 -59 -86 -8 -96 -23
-95 -132 1 -103 12 -129 57 -133 87 -8 228 29 291 77 l46 35 42 -29 c58 -39
105 -58 193 -76 252 -52 501 50 605 248 43 80 190 216 315 292 l54 32 -59 26
c-58 25 -60 27 -60 64 0 21 4 55 9 76 5 20 6 37 3 37 -9 0 -95 -52 -143 -86
-26 -19 -49 -34 -53 -34 -3 0 -6 17 -7 38 -2 132 -101 312 -204 369 -17 10
-16 14 17 52 86 101 129 230 130 387 1 172 -51 306 -161 414 -104 103 -196
139 -352 140 -104 0 -189 -23 -269 -74 l-55 -35 -30 23 c-69 53 -145 78 -272
91 l-62 7 -17 -34z m207 -49 c49 -14 80 -31 117 -64 27 -25 52 -45 54 -45 3 0
18 11 33 24 182 157 485 136 634 -42 83 -100 123 -216 122 -355 -1 -166 -46
-282 -148 -377 l-63 -60 49 -24 c62 -32 135 -105 167 -167 32 -64 54 -160 57
-253 1 -42 3 -76 5 -76 1 0 39 29 84 65 45 36 86 65 90 65 5 0 5 -17 2 -39 -6
-36 -4 -39 25 -52 17 -8 31 -16 31 -19 -1 -3 -29 -26 -63 -52 -121 -92 -196
-167 -225 -226 -35 -74 -121 -160 -196 -196 -180 -87 -437 -62 -571 55 l-35
31 -46 -41 c-56 -49 -137 -81 -225 -88 l-66 -6 -7 55 c-4 30 -4 67 0 82 5 22
12 26 43 26 63 1 133 31 158 69 22 33 23 41 23 272 l0 238 -30 16 c-17 9 -38
31 -47 50 -15 32 -15 38 0 69 8 19 30 42 47 52 l31 19 -3 387 -3 387 -28 29
c-29 30 -90 52 -146 52 -16 0 -33 5 -37 11 -8 13 -8 135 0 148 8 12 89 3 167
-20z"/>
<path d="M1338 2337 c-63 -24 -125 -65 -157 -106 l-31 -39 0 -355 0 -356 158
54 c284 96 323 114 381 181 64 72 76 113 76 259 0 123 -2 133 -29 189 -34 69
-88 126 -148 157 -54 28 -193 37 -250 16z m217 -61 c65 -30 117 -89 145 -162
18 -49 21 -75 18 -155 -3 -83 -7 -103 -33 -154 -44 -85 -85 -112 -284 -183
-94 -34 -178 -62 -186 -62 -13 0 -15 42 -15 307 l0 307 49 47 c26 25 68 53 92
62 68 24 155 21 214 -7z"/>
<path d="M1313 1402 l-163 -56 0 -253 c0 -248 1 -255 24 -301 43 -84 111 -126
234 -144 145 -21 288 27 359 120 51 67 68 137 67 277 -1 226 -50 315 -209 382
-96 40 -132 37 -312 -25z m295 -24 c112 -42 157 -109 173 -263 13 -119 -1
-220 -40 -290 -96 -171 -441 -177 -520 -9 -19 40 -21 62 -21 268 l0 224 148
50 c157 53 167 54 260 20z"/>
</g>
</svg>
