<?xml version="1.0" standalone="no"?>
<!DOCTYPE svg PUBLIC "-//W3C//DTD SVG 20010904//EN"
 "http://www.w3.org/TR/2001/REC-SVG-20010904/DTD/svg10.dtd">
<svg version="1.0" xmlns="http://www.w3.org/2000/svg"
 width="360.000000pt" height="360.000000pt" viewBox="0 0 360.000000 360.000000"
 preserveAspectRatio="xMidYMid meet">
<metadata>
Created by potrace 1.15, written by Peter Selinger 2001-2017
</metadata>
<g transform="translate(0.000000,360.000000) scale(0.100000,-0.100000)"
fill="#000000" stroke="none">
<path d="M2260 2725 c-27 -37 -35 -40 -74 -25 l-25 9 15 -41 c22 -63 19 -78
-16 -78 -76 0 -102 -80 -74 -231 28 -156 29 -237 4 -321 -25 -82 -72 -178
-102 -205 -19 -17 -23 -13 -166 132 -169 172 -277 275 -378 362 -91 77 -169
131 -162 111 18 -46 49 -161 44 -165 -2 -3 -44 7 -93 20 -48 14 -89 25 -90 23
-1 -1 30 -40 69 -86 95 -113 282 -297 451 -445 l138 -119 -23 -18 c-48 -38
-247 -128 -323 -148 -44 -11 -125 -24 -179 -30 -55 -6 -117 -16 -139 -22 -50
-15 -105 -66 -113 -105 l-6 -30 -69 35 c-72 37 -160 52 -189 32 -12 -8 -5 -19
43 -61 84 -74 86 -81 42 -135 -21 -25 -34 -48 -30 -52 4 -4 51 -7 105 -7 97 0
98 0 108 -28 16 -41 86 -69 176 -69 142 1 399 49 572 107 106 35 267 112 343
164 l45 30 35 -31 c20 -18 79 -73 131 -123 284 -272 275 -265 335 -265 81 0
124 98 73 166 -13 16 -70 74 -128 129 -58 54 -144 137 -192 183 l-87 84 55 71
c70 91 156 266 186 377 30 113 33 340 5 440 -26 95 -63 170 -105 213 -38 39
-97 62 -128 50 -14 -5 -16 -3 -11 11 19 49 18 63 -8 94 -15 18 -30 32 -33 32
-4 0 -18 -16 -32 -35z m50 -48 c0 -12 -14 -44 -30 -72 -16 -27 -30 -54 -30
-58 0 -4 20 4 43 18 61 35 98 33 146 -10 78 -70 125 -222 125 -400 0 -155 -26
-262 -99 -411 -180 -369 -528 -583 -1080 -663 -205 -30 -264 -27 -310 15 l-26
24 20 27 c11 16 23 39 27 53 7 24 6 24 -17 7 -39 -29 -81 -45 -130 -50 -65 -7
-77 3 -50 41 11 17 21 34 21 39 0 5 -23 35 -52 67 -43 49 -48 57 -27 51 46
-13 128 -54 172 -84 l44 -30 -5 48 c-9 93 54 131 249 151 183 18 322 69 482
173 187 122 283 235 331 386 37 118 41 179 17 295 -41 193 -24 275 54 260 l35
-6 0 52 c0 41 3 51 14 47 9 -4 22 7 35 29 22 37 41 38 41 1z m-840 -420 c58
-52 190 -179 293 -283 l188 -189 -28 -23 c-15 -13 -43 -35 -60 -49 l-33 -25
-72 62 c-232 199 -540 500 -511 500 4 0 38 -9 75 -19 l66 -19 -14 46 c-24 78
-27 92 -18 92 5 0 56 -42 114 -93z m1033 -999 c106 -100 201 -197 212 -215 18
-30 19 -35 5 -59 -20 -37 -42 -48 -74 -40 -23 6 -206 170 -410 367 l-39 38 49
45 c27 25 53 45 57 46 4 0 94 -82 200 -182z"/>
</g>
</svg>
